<svg xmlns="http://www.w3.org/2000/svg" width="8.997" height="8.81" viewBox="0 0 8.997 8.81">
  <g id="Group_273" data-name="Group 273" transform="translate(-1172.218 -1945.023)">
    <path id="Subtraction_1" data-name="Subtraction 1" d="M-1668.96,16.237a.588.588,0,0,1-.6-.593V14.507l1.532-1.531a1.6,1.6,0,0,0,0-2.255l-1.532-1.531V8.021a.589.589,0,0,1,.6-.593.585.585,0,0,1,.415.174l3.813,3.811a.589.589,0,0,1,.173.419.589.589,0,0,1-.173.419l-3.813,3.811A.585.585,0,0,1-1668.96,16.237Z" transform="translate(2845.773 1937.596)" fill="#ff9b21"/>
    <path id="caret-down-solid" d="M.593,5H8.217a.591.591,0,0,0,.418-1.01L4.824.173a.594.594,0,0,0-.839,0L.175,3.987A.591.591,0,0,0,.593,5Z" transform="translate(1177.215 1945.023) rotate(90)" fill="#ff9b21"/>
  </g>
</svg>
