<svg id="Layer_1" data-name="Layer 1" xmlns="http://www.w3.org/2000/svg" viewBox="0 0 572.63 465.33"><path d="M255,210.07a20,20,0,0,0,6.77-27.46L255.28,172c2-.86,4-1.69,6.07-2.47a70,70,0,0,0,9.84-3.36,71.44,71.44,0,0,0,22.51-15.21c.17-.17.32-.35.49-.52l8.09,4.55a20,20,0,1,0,19.61-34.86l-8.8-4.95a71.86,71.86,0,0,0-1.62-35.86l8.32-5a20,20,0,0,0,6.77-27.47h0A20,20,0,0,0,299.09,40l-9.65,5.83A71.1,71.1,0,0,0,264.23,32l1-10A20,20,0,0,0,247.33.1h0A20,20,0,0,0,225.43,18l-1.34,13.44a71.47,71.47,0,0,0-12.42,4.69c-1.33.66-2.65,1.35-3.95,2.1q-7.58,4-15,8.45l-4.52-7.49a20,20,0,0,0-27.47-6.76h0A20,20,0,0,0,154,59.9l5.32,8.8A416.27,416.27,0,0,0,125,96.7l-6.1-6.09a20,20,0,0,0-28.28,28.28L96.7,125a416.27,416.27,0,0,0-28,34.31L59.9,154a20,20,0,0,0-20.7,34.23l7.49,4.52q-4.39,7.43-8.45,15c-.75,1.31-1.44,2.63-2.1,4a71.47,71.47,0,0,0-4.69,12.42L18,225.43A20,20,0,0,0,.1,247.33h0A20,20,0,0,0,22,265.24l10-1a71.1,71.1,0,0,0,13.83,25.21L40,299.09a20,20,0,0,0,6.76,27.47h0a20,20,0,0,0,27.47-6.77l5-8.32a71.86,71.86,0,0,0,35.86,1.62l4.95,8.8a20,20,0,0,0,27.23,7.63h0A20,20,0,0,0,155,302.28l-4.55-8.09.52-.49a71.44,71.44,0,0,0,15.21-22.51,70,70,0,0,0,3.36-9.84c.78-2,1.61-4.06,2.47-6.07l10.64,6.44a20,20,0,0,0,20.7-34.23l-11.05-6.68a159.86,159.86,0,0,1,28.55-28.55l6.68,11.05A20,20,0,0,0,255,210.07Zm-77.61-32.73a197.37,197.37,0,0,0-45.23,69.8l-1.3,4.05a31.51,31.51,0,1,1-58.75-21.92c.3-.6,1.44-2.67,1.44-2.67A375.63,375.63,0,0,1,226.6,73.5s2.06-1.14,2.67-1.44a31.52,31.52,0,1,1,21.92,58.75l-4.05,1.3A197.37,197.37,0,0,0,177.34,177.34Z"/><circle cx="203.32" cy="122" r="19.83" transform="translate(-12.77 219.62) rotate(-55.28)"/><path d="M572.53,218h0a20,20,0,0,0-21.9-17.91l-10,1a71,71,0,0,0-13.83-25.21l5.84-9.66a20,20,0,0,0-6.77-27.46h0a20,20,0,0,0-27.46,6.77l-5,8.32a71.74,71.74,0,0,0-35.86-1.62l-5-8.8a20,20,0,0,0-27.24-7.63h0A20,20,0,0,0,417.66,163l4.56,8.1-.52.49A71.41,71.41,0,0,0,403.12,204c-.77,2-1.6,4.06-2.46,6.07L390,203.61a20,20,0,1,0-20.7,34.23l11.05,6.68a159.86,159.86,0,0,1-28.55,28.55L345.14,262a20,20,0,0,0-34.23,20.7l6.43,10.64c-2,.86-4,1.69-6.06,2.46a71.41,71.41,0,0,0-32.35,18.58c-.17.17-.33.35-.49.52l-8.1-4.55a20,20,0,1,0-19.6,34.86l8.8,4.95A71.74,71.74,0,0,0,261.16,386l-8.33,5a20,20,0,0,0-6.76,27.46h0a20,20,0,0,0,27.46,6.77l9.65-5.84a71.08,71.08,0,0,0,25.22,13.83l-1,10a20,20,0,0,0,17.91,21.89h0a20,20,0,0,0,21.89-17.91l1.35-13.44a71.31,71.31,0,0,0,12.42-4.7q2-1,4-2.09,7.56-4.05,15-8.45l4.52,7.48a20,20,0,0,0,27.46,6.77h0a20,20,0,0,0,6.77-27.46l-5.32-8.8a416,416,0,0,0,34.31-28l6.1,6.1A20,20,0,1,0,482,346.44l-6.1-6.1a412.21,412.21,0,0,0,28-34.31l8.8,5.32a20,20,0,1,0,20.7-34.23l-7.48-4.52c2.92-5,5.75-9.94,8.45-15q1.11-2,2.09-4a71.31,71.31,0,0,0,4.7-12.42l13.44-1.35A20,20,0,0,0,572.53,218Zm-72,18.05c-.29.61-1.43,2.68-1.43,2.68A375.79,375.79,0,0,1,346,391.83s-2.07,1.14-2.68,1.43a31.51,31.51,0,0,1-36.14-50.57,31.17,31.17,0,0,1,9.91-6.7,32.22,32.22,0,0,1,4.31-1.48l4.06-1.3a199.06,199.06,0,0,0,115-115l1.3-4.05A31.4,31.4,0,0,1,450,199.91a31.51,31.51,0,0,1,50.57,36.14Z"/><circle cx="446.2" cy="270.46" r="19.83" transform="translate(-73.81 313.28) rotate(-35.93)"/><path d="M367.84,331a12.61,12.61,0,1,0,17.84,0A12.61,12.61,0,0,0,367.84,331Z"/></svg>