<svg xmlns="http://www.w3.org/2000/svg" width="12.989" height="14.872" viewBox="0 0 12.989 14.872">
  <path id="bag-01" d="M10.231,3.721A3.737,3.737,0,0,0,6.494,0h0A3.737,3.737,0,0,0,2.758,3.722H0v8.886a2.265,2.265,0,0,0,2.265,2.265h8.46a2.265,2.265,0,0,0,2.265-2.265V3.721ZM6.518,1.362A2.39,2.39,0,0,1,8.867,3.721H4.119a2.378,2.378,0,0,1,2.4-2.359Zm5.109,11.245a.9.9,0,0,1-.9.9H2.265a.9.9,0,0,1-.9-.9V5.083h1.4V6.291a.681.681,0,0,0,1.362,0V5.083h4.75V6.291a.681.681,0,1,0,1.362,0V5.083h1.4Z" fill="#fff"/>
</svg>
