<svg xmlns="http://www.w3.org/2000/svg" viewBox="0 0 291.85 244.12"><defs><style>.cls-1{fill:#181818;}</style></defs><g id="Object"><path class="cls-1" d="M157.69,50.36,121.55,76.18,111,60.73V45.86a.68.68,0,0,0-.08-.31L97.5,21.27a.64.64,0,0,0-.56-.34H61.82L.73,12.57A.64.64,0,0,0,0,13a.65.65,0,0,0,.39.77L61.24,38,77,92.84v26.71a.66.66,0,0,0,.12.38L98.87,150l4.07,11.39-4.08,9a.64.64,0,0,0,.13.72L109.88,182a.68.68,0,0,0,.46.19.67.67,0,0,0,.38-.13.65.65,0,0,0,.19-.83l-5.64-10.46,7.38-7.52-2.09,6.37a.68.68,0,0,0,.08.57L118.18,181a.65.65,0,0,0,1.17-.46L117.72,170l2.86-3.48,9.46,7.16h0l47.69,36,31.78,34.29a.61.61,0,0,0,.47.21.69.69,0,0,0,.24-.05.64.64,0,0,0,.41-.6v-10a.64.64,0,0,0-.11-.36l-39.73-59.6L157,144.42l-4.14-11.15,59.2-45,.07-.06,45.22-46.89h0l0,0L291.69,1.07a.66.66,0,0,0,0-.8A.66.66,0,0,0,291,0L157.84,50.28A.71.71,0,0,0,157.69,50.36ZM61.13,36.54l-55.31-22,55.31,7.57Zm1.29.86V22.22H96.56L109.69,46V60.66L78,91.54ZM104,170.17a.65.65,0,0,0-.1.76l3.77,7-7.46-7.45,4-8.81a.66.66,0,0,0,0-.48l-3.46-9.69,12.36,9.36Zm12.53-.79a.62.62,0,0,0-.14.51l1.25,8.11-5.76-8.32,2.56-7.83,5.1,3.86Zm92.79,64.24v8.21l-30.7-33.13-.08-.07-42.69-32.21,42,19.91a.71.71,0,0,0,.28.06.62.62,0,0,0,.43-.16.64.64,0,0,0,.18-.69L173.6,180Zm-40-60.18-.09.06.41.61,2,4.29,5.37,16.11-46.3-21.93-29.59-22.39,2.35-.21L156,145.35ZM155.49,144.1l-16.89,1.49L99.76,149,78.33,119.34V93l31.91-31.1,10.26,15L99.08,92.23a.63.63,0,0,0-.2.81.43.43,0,0,0,.12.17h0l46.47,45a.66.66,0,0,0,.45.18.68.68,0,0,0,.39-.13l5.47-4.16Zm55.73-56.85L146,136.88,100.67,93,254.59,42.27ZM289.08,2.14,256.5,40.28,103.28,90.81l55.09-39.35Z"/></g></svg>