<svg id="Layer_1" data-name="Layer 1" xmlns="http://www.w3.org/2000/svg" viewBox="0 0 496.35 439.3"><path d="M467.4,0H425.87L414.73,40H387.44L376.3,0H305.92V120.28c-33.26,2.75-89.44,14.48-138.37,59.17-33.08,30.23-57.2,70.22-72.24,119.54V139.53a19.78,19.78,0,0,0-1.14-6.65C80.77,94.88,56.05,81,37.67,76a82.22,82.22,0,0,0-26-2.62A12.43,12.43,0,0,0,0,85.84v15a12.42,12.42,0,0,0,12.38,12.44c5.47,0,11.66.39,16.15,1.77,11.83,3.64,20.82,13.09,26.78,28.11V387.43a55.81,55.81,0,0,0,15.45,38.19,62.51,62.51,0,0,0,6,5.59,68.72,68.72,0,0,0,12.58,8.09h214a32,32,0,0,0,32-31.47,56.69,56.69,0,0,0-34.56-52.74l47.34-22.36v72.66a33.91,33.91,0,0,0,33.91,33.91h26.09a33.91,33.91,0,0,0,33.91-33.91V224a95.22,95.22,0,0,0,54.26-86V0ZM348.18,288.49l-76.06,35.92c-7.23-25.5-19.48-42.13-30.37-52.55a95.07,95.07,0,0,0-26.81-18.16,11.72,11.72,0,0,0-16.26,8.48l-3.74,19a8.79,8.79,0,0,0,4.7,9.57c9.71,4.8,28.36,18.06,35.63,51.07.61,2.78,1.15,5.71,1.6,8.79a159.52,159.52,0,0,1,1.57,23v11a6,6,0,0,0,5.9,6.06h34.39a16.7,16.7,0,0,1,14.64,8.69H118.06c.2-2.92.43-5.82.67-8.69q1.83-20.89,5.27-40c11-61.11,34.44-108.43,70.08-141.21,25.11-23.1,55.65-38.47,90.78-45.7a205.28,205.28,0,0,1,23.68-3.46,95.32,95.32,0,0,0,39.64,56.9ZM402.09,399.3H388.18v-167a97.16,97.16,0,0,0,13,.88h.95ZM456.35,138a55.24,55.24,0,0,1-54.26,55.19c-.32,0-.63,0-.95,0A55.28,55.28,0,0,1,345.92,138V40h0l12.17,43.69h86L456.25,40h.1Z"/><path d="M375.21,107.4A13.83,13.83,0,1,0,389,121.23,13.83,13.83,0,0,0,375.21,107.4Z"/><path d="M430,107.4a13.83,13.83,0,1,0,13.82,13.83A13.83,13.83,0,0,0,430,107.4Z"/></svg>