<svg id="Layer_1" data-name="Layer 1" xmlns="http://www.w3.org/2000/svg" viewBox="0 0 492.52 438.78"><path d="M481.73,7a29.85,29.85,0,0,0-19.21-7H448.6L423.92,30,405.75,52.08h-19.1L368.58,30,344,0H329.48a30,30,0,0,0-30,30V135.65c0,.53,0,1,0,1.57H282.26A227.41,227.41,0,0,0,83.74,253.58v-104A67.48,67.48,0,0,0,16.26,82.08h-7A9.3,9.3,0,0,0,0,91.39v11.39a9.3,9.3,0,0,0,9.3,9.3h7a37.48,37.48,0,0,1,37.48,37.48V356.22l1,24.55v.36h0c0,1.67.09,3.32.23,5a57.64,57.64,0,0,0,57.42,52.69H300.52a26.35,26.35,0,0,0,26.35-26.35h0a57.7,57.7,0,0,0-43.58-55.91L295,351.13l60.33-27.84v89.14a26.35,26.35,0,0,0,26.35,26.35h28.7a26.35,26.35,0,0,0,26.35-26.35V223.19a96.61,96.61,0,0,0,55.8-86c0-.52,0-1,0-1.57V30A29.94,29.94,0,0,0,481.73,7ZM355.3,290.26l-95.45,44c-5.53-28.88-19.38-46.57-31.44-56.88a86.91,86.91,0,0,0-26.27-15.49,8.36,8.36,0,0,0-11.1,6.36l-2.41,13.24a8.41,8.41,0,0,0,5.11,9.27c11.27,4.66,33.81,18.81,37.91,57.93v36h37.57a27.69,27.69,0,0,1,27.41,24H112.43a27.64,27.64,0,0,1-24.81-15.52,50.84,50.84,0,0,1-1.91-5,27.71,27.71,0,0,1-.69-3.45V351.13s1-11.06,2.24-17.9h0a197.58,197.58,0,0,1,195-166h22.5a96.84,96.84,0,0,0,50.54,56Zm51.4,3.09V408.78H385.3V231.58a97.32,97.32,0,0,0,21.4,0Zm55.82-157.7c0,.53,0,1,0,1.57a66,66,0,0,1-7.94,30,67.1,67.1,0,0,1-17.84,21,66.35,66.35,0,0,1-81.4,0,67.1,67.1,0,0,1-17.84-21,66.12,66.12,0,0,1-7.94-30c0-.52,0-1,0-1.57V30h.33l42.63,52.08h47.47L462.52,30.3Z"/><circle cx="368.62" cy="121.66" r="13.79"/><circle cx="423.38" cy="121.66" r="13.79"/></svg>