<svg xmlns="http://www.w3.org/2000/svg" width="28.757" height="22.367" viewBox="0 0 28.757 22.367">
  <path id="credit-card-regular" d="M26.356,32H2.4A2.4,2.4,0,0,0,0,34.4V51.97a2.4,2.4,0,0,0,2.4,2.4H26.356a2.4,2.4,0,0,0,2.4-2.4V34.4a2.4,2.4,0,0,0-2.4-2.4ZM2.7,34.4H26.056a.3.3,0,0,1,.3.3v2.1H2.4V34.7A.3.3,0,0,1,2.7,34.4ZM26.056,51.97H2.7a.3.3,0,0,1-.3-.3V43.183H26.356v8.487A.3.3,0,0,1,26.056,51.97ZM9.586,46.978v2a.6.6,0,0,1-.6.6H5.392a.6.6,0,0,1-.6-.6v-2a.6.6,0,0,1,.6-.6H8.987A.6.6,0,0,1,9.586,46.978Zm9.586,0v2a.6.6,0,0,1-.6.6h-6.79a.6.6,0,0,1-.6-.6v-2a.6.6,0,0,1,.6-.6h6.79A.6.6,0,0,1,19.172,46.978Z" transform="translate(0 -32)" fill="#fff"/>
</svg>
