<svg id="Layer_1" data-name="Layer 1" xmlns="http://www.w3.org/2000/svg" viewBox="0 0 264.13 522.11"><path d="M253.14,482.12h-7.95c0-.48-.07-.95-.12-1.42L203.22,115.92A37.16,37.16,0,0,0,166.29,83H161V65.15H174.1a11,11,0,0,0,11-11V11a11,11,0,0,0-11-11H90a11,11,0,0,0-11,11V54.17a11,11,0,0,0,11,11h13.08V83H97.84a37.16,37.16,0,0,0-36.93,32.94L19.07,480.7c-.06.47-.09.94-.13,1.42H11a11,11,0,0,0-11,11v18a11,11,0,0,0,11,11H253.14a11,11,0,0,0,11-11v-18A11,11,0,0,0,253.14,482.12Zm-184-87.23H195l10,87.22H59.17ZM100.36,123h63.41l10.54,91.91H89.82Z"/></svg>