<svg xmlns="http://www.w3.org/2000/svg" width="10.082" height="10.082" viewBox="0 0 10.082 10.082">
  <path id="external-link-alt-solid" d="M8.507,6.3h-.63a.315.315,0,0,0-.315.315V8.822H1.26v-6.3H4.1a.315.315,0,0,0,.315-.315v-.63A.315.315,0,0,0,4.1,1.26H.945A.945.945,0,0,0,0,2.205V9.137a.945.945,0,0,0,.945.945H7.877a.945.945,0,0,0,.945-.945V6.616A.315.315,0,0,0,8.507,6.3ZM9.609,0H7.089a.474.474,0,0,0-.335.807l.7.7-4.8,4.8a.473.473,0,0,0,0,.67l.446.446a.473.473,0,0,0,.67,0l4.8-4.8.7.7a.473.473,0,0,0,.807-.335V.473A.473.473,0,0,0,9.609,0Z" fill="#fff"/>
</svg>
