<svg xmlns="http://www.w3.org/2000/svg" viewBox="0 0 190.56 293.14"><defs><style>.cls-1{fill:#181818;}</style></defs><g id="Object"><path class="cls-1" d="M189.85,237.67l-47.29,6.23,28.16-139.63,11.27-7-15.32-39,7.12-22.91V2.83L171,0,144.28,15.44l-.13.08L133.66,31.94H111.47L101.06,15.63,74.26.12,71.43,2.94V35.51l7.1,22.85L63.41,96.82l-.19.49L74.15,104,21.47,169h0l-.07.11v0l-21.33,48a.61.61,0,0,0,0,.46l16.44,46.66a.64.64,0,0,0,.43.4l105.31,28.44.16,0a.52.52,0,0,0,.21,0h0a.42.42,0,0,0,.16-.09l67.54-54.21a.64.64,0,0,0,.19-.74A.65.65,0,0,0,189.85,237.67Zm-48.5,5.88-17.81,2.85-.31,0V133.63l46-28.45ZM131.19,127.23,124,124.9l7.13-5.85-.66-2.79,9.13-6.86,2.78-9.25,17.25-17.26L180.15,97Zm-14.41-14.12h11.66l1.29,5.47-7,5.75-7.13-5.76Zm-1.69,1.82-8.64-6.29-2.63-8.78L122,61.26v50.59h-6.27Zm8.2-3.08V61.08l17.88,38.78-2.64,8.79-8.37,6.28-.72-3.08Zm56.53-16.63-20.33-14L142,98.73l-11-24,7.6-8.34,8.15,2,18.93-9.27ZM165.94,56.44l-9.46-24.09L169.74,7.08l2.78,28.19Zm-10.67-24.5H139.08l7.58-12,21.9-13.26ZM145.05,16.45l25.7-14.88,1.78,1.78V22.53L170.69,3.88,145.76,19l-8.17,13h-2.44ZM134.42,33.2h21L165.21,58,146.6,67.14,138.17,65l-7.75,8.5-7-15.19Zm-1.38,0L122.71,56.81,112.13,33.2ZM122,58.34l-7.2,15.26-8-8.57-8.43,2.11L80,58.12l9.8-24.92h21ZM76.75,6.81,98.55,20l7.51,11.92H89.94ZM72.68,3.46l1.78-1.77,25.71,14.88L110,31.94h-2.44l-8-12.72-.08-.13L75.61,4.65h0L74.52,4,72.68,22.65Zm0,31.92L75.48,7.1,88.74,32.35,79.25,56.49ZM79.5,59.3l18.74,9.17,8.15-2,7.86,8.39L103,98.74,85.49,81.26,65.4,95.19ZM65.05,97,85.34,82.9l17.25,17.25,2.78,9.26,9.43,6.86-.61,2.79,7.26,5.87-6.77,2.39.09.25L75.42,103.34h0Zm9.67,8.38L97.36,227,22.85,169.32ZM17.55,263.55,1.3,217.44l20.82-46.83,98.54,120.78Zm104.21,27.19L25.92,173.29,97.74,228.9a.61.61,0,0,0,.17.19l23.85,18.4Zm.22-44.67-23.13-17.9L76,105.16l46,28.33Zm.74-113.6-6.87-4.23,6.75-2.38.12.1.13-.11,6.94,2.25ZM123,291.2V247.76l.71-.12,64.06-8.43Z"/></g></svg>