<svg xmlns="http://www.w3.org/2000/svg" width="14.696" height="14.083" viewBox="0 0 14.696 14.083">
  <path id="line" d="M7.348.5C3.3.5,0,3.193,0,6.5c0,2.964,2.615,5.448,6.145,5.92.239.051.565.159.648.364a1.515,1.515,0,0,1,.023.666l-.1.628c-.028.186-.147.73.642.4a23.692,23.692,0,0,0,5.778-4.3A5.328,5.328,0,0,0,14.7,6.5c0-3.31-3.3-6-7.348-6ZM4.472,8.471H3.011a.389.389,0,0,1-.386-.388V5.143a.386.386,0,1,1,.772,0V7.695H4.472a.388.388,0,0,1,0,.776Zm1.51-.388a.385.385,0,1,1-.77,0V5.143a.385.385,0,1,1,.77,0Zm3.515,0a.388.388,0,0,1-.265.367.4.4,0,0,1-.122.019A.378.378,0,0,1,8.8,8.315L7.3,6.271V8.082a.385.385,0,1,1-.77,0V5.143A.386.386,0,0,1,6.8,4.776a.356.356,0,0,1,.119-.02.4.4,0,0,1,.3.157L8.726,6.965V5.143a.386.386,0,1,1,.772,0Zm2.36-1.858a.389.389,0,0,1,0,.777H10.783v.693h1.075a.388.388,0,0,1,0,.776H10.4a.388.388,0,0,1-.384-.388V5.143a.388.388,0,0,1,.386-.388h1.461a.388.388,0,0,1,0,.776H10.783v.693Z" transform="translate(0 -0.5)" fill="#00b900"/>
</svg>
