<svg id="Layer_1" data-name="Layer 1" xmlns="http://www.w3.org/2000/svg" viewBox="0 0 841.61 441.26"><defs><style>.cls-1{fill:#ff6601;}</style></defs><path class="cls-1" d="M338.9,71.3l.05,0c14.85-2.25,13.72-14,13.72-14-4.89-2.55-15.26-2.94-18-3.13s-4.69-2.74-2.74-3.53C352.08,39.33,353.06,27,353.06,27c-1.17,1.17-5.08,2.54-5.08,2.54,3.71-2.54,6.45-8.61,6.45-8.61-.87,1.31-4.09,3.15-5.71,4,2.35-1.51,4.91-5.28,4.73-8.9C351.89.78,331.35,0,331.35,0c.78,1.37,0,4.89,0,4.89A9.37,9.37,0,0,0,325.48,0c10.76,19.37-2.35,29.74-2.35,29.74.39-25.63-15-23.09-15-23.09,5.58,4.7,2.25,9.39,2.25,13.11s-4.5,8-4.5,11.35,4.5,8.41,4.5,8.41c-2.05,1-4.89-2.93-8-2.93s-4.11,3.71-4.11,3.71l-2.54,1.57,3.52-.2c1.76.2,2.35,2.35,2.29,5h0a207.86,207.86,0,0,0-95.4-23c-104,0-190.2,76-206.15,175.5,4.82,1.94,52.73,20.93,64.87,14.24,3.91-2.87,4.43-12.36,5.48-14.4s4.43-3.86,7,2.14,4.43,10.44,9.13,8.87,5-7.57,5.22-11.74,6-7.56,9.39-7.3A24.86,24.86,0,0,1,98,211.57C94.61,216,88.87,220.7,93.82,229s6.26,11.48,5.22,23.48c-.26,4.44,7.31,4.18,18,13.31,4.17,3.39,12.52,1.82,15.13,1.56s3.91,14.09,1.31,18.52c-1.83.52-3.66,2.35-3.66,4.18s1.05,4.69-5.21,7.56S106.08,301.3,97,307.83s-24.19,5.21-29.7,4.95-32-2.16-39.17,7.31c-2.37,3,1.34,20.84,7.69,33.09a46,46,0,0,0,3.12,5.23c.11-.16.22-.32.35-.49,2.08-2.79,6.59-6.69,15.19-5.49,5.36.76,12,1.81,18.65,2.62v-6.53s-5.87-6.44-7.56-8.89-5.35-.63-6.13-2.46-2.87-5.6,1-7.56,5.87,3.13,5.48,3.91.78.91,3.65-.26,10.31-1.83,12.26-1.69-.52-7.7,4.05-11.74c2.21-.79,4.82-2,5.21.78A3.4,3.4,0,0,1,92.26,323l1.95,1-2.73-.65s-1.7-.65-1.7,1.43,3.13,3,3.13,7.7A14.59,14.59,0,0,1,84,345.91a3.27,3.27,0,0,0-2,3.26,48.19,48.19,0,0,0,.77,6.83c5.74.38,10.82.3,14.1-.7,8.61-2.6,21.92-16.95,24.53-36,0,0-1.31-1.3-5.22,0,0,0,11.22-9.13,21.39-8.6,7,0,18.39,10.95,20.15,12.32s1.76,2.15,1,4.11a8.88,8.88,0,0,1,1,7c-.52,2-12.65.66-12.65.66s-2.48,7.3,5.74,7c0,0-6.26,5.87-10.83-3.13,0,0,1.31,6,4,7.17,0,0-11.09,1.18-14-3.26,0,0-1.56,31.05-1.76,39.65-.2,6.66-8,14.87-7.43,14.68s16.9-3,25.76-4.72c2-1.1,4.26-2.77,2.61-4.18-2.74-2.35-7,1.66-10-3.53S139.9,372,139.9,372a5.06,5.06,0,0,1-5-5.48c0-5.47,4-6.26,6.27-6.26s6.26,1.3,6.26,7.14a11.62,11.62,0,0,1-1.76,5.19s-3.5,4.66,1.37,10.6c0,0-5.09-8.74,2-12.39,2.87-1.7,5.35.65,6.91,0s1.3-3.53,3.52-4.57c1.57-2,1-4.56,1.7-4.56s1.3.65,1.82,3.52c1.18.91,3.46.45,4.24,3.19,1.18.69,1.27,3.13,0,3.33s-3.52.29-4-.39a3.8,3.8,0,0,1-2.35,4.6s2.55,3.42.59,5.28c-.68.68-1.07-.59-.88-1.47a2.41,2.41,0,0,0-1.27-2.54,3.55,3.55,0,0,1-1.75-1.49c.36,1.61.85,5.49-1.87,8.43,0,0-.59,1.27,1.47,1.18a8.63,8.63,0,0,1,5.28,1.37,2.27,2.27,0,0,1,.7.93c8.48-3.71,18.15-9.67,24.64-18.44,10.56-14.29,12.32-25.24,26-25.63s13.69,10.54,23.28,10.26l9.59-.29s4.11,2.74-1,9.79-13.5,5.28-18.39,6.06-18.39,5.28-20.15,23.28c-.4,15.66-2,26-6.85,34.24-2.63,4.41-1.93,10-.72,14.24,2.2.06,4.4.11,6.61.11a207.87,207.87,0,0,0,124.56-41.21c-1.36-.13-3.12-.3-5.1-.53-4.56-.52-4.18-1.95-3.4-2.48s4.18.13,6.66-.78,1.3-3.91,1.3-3.91c-11.09-.78-17.74-5.35-17.74-5.35-.52,6.26-2.22,16.57-4.56,17s-6,0-6.66-2.61,3.14-2.22,3.79-3.26c1-2.87.39-15.39.39-15.39-2,0-8.61-2.35-13.44-4.57a10.63,10.63,0,0,0-8.47-.52s.26,4.69-3.13,4.17a3.27,3.27,0,0,1-2.61-4.95c4.69-6.53,14.08-5.74,14.08-5.74-1.56-9-.26-19.83-.26-19.83-2.48.26-2.87-.91-3.13-2.74s1.73-2.8,2.81-3.68A10.32,10.32,0,0,1,296,342.2c2.35-.49,1.86-1.57,1.86-1.57,0-1.56,2-3.52,2-3.52a7.1,7.1,0,0,0,1.95,3.52l2.55-4.11.52,7.57a18.36,18.36,0,0,1,1.56,6.52c0,3.13,1.57,9.65,9.13,10.43s15.92,5.74,15.92,5.74-1.31-19.3-4.7-25.56S321,324.78,321,314.61s-.26-31-1.56-41.74-12-8.87-12-8.87c-16.05-1.83-14.61-3.46-18-6.33s-5.22-2.28-7.57-4.37c-4.7-5.47-3.91-6.52-.52-11.73s2.87-12.53,4.43-13.83,8.09-4.44,8.61-8.09c1.31-8.08,3.65-22.43,5-24.78s-1.31-14.35.26-17.22,5.74-8.87-1.3-8.87A35.77,35.77,0,0,1,284,166.17c-3.39-1.3-24.52-21.13-15.39-28.69s24-4.18,28.69,2.35,6.78,7.56,6.78,7.56c2.61-1.3,12.53-6.26,16.7-7.56s5.22-2.35,9.39-7.31,8.87-5.74,15.91-6,7.05,3.39,12.79,6.52,8.87,6.26,10.69,12.53,3.13,6.52,6.26,8.6,3.66,7.05,6.26,7.16,3.4-1.94,9.4-2.72,11.69,5.5,11.69,5.5l.38.14A209.17,209.17,0,0,0,338.9,71.3ZM255.43,416.74c-6.65-.39-7.43,2.22-8.87,3.78l-1.43,1.57s.91,6.13.39,7.17-4.83,1.44-4.83-.39-.13-5.35-.13-5.35a32.65,32.65,0,0,1-4.95,1.83s.91,3.26-1.31,5.35c-1,1.3,1.44,4.56.65,5.34s-5.74-.26-6.26-2,.92-3.39,2-4.31.91-2.21-.13-3.26c0,0-7,3.33-12.65,0-2-1.37-4.05.13-6.13,2.74-.79,1-2.35,3.91-5.09,2.09s2-4.3,3.13-5.35,2.09-1.57,2.48-3.91,3-13.57,15.91-15.26,15.65,7.43,17.87,7.43,5.09,0,7-.78a9.52,9.52,0,0,1,5.74-.78C261,413.09,262.08,417.13,255.43,416.74Zm27.92-30c-4.57,3.52-13.31,3.65-13.31,3.65.91.26,1.17,2.61,1.44,3.07s.78,1.37,2.64,1.11c5.12-1.83,17.05-2.35,19.53,5.73S292.48,416,292.48,416c.26-.92-.91-2.09-.91-2.09a14.31,14.31,0,0,0,0,4.17c.26,3.26-12.65,2.22-16.3,2.22s0-5.22,0-5.22a23.66,23.66,0,0,1-6.65-.78s.52,6-2.27,6-4.65-.13-3.43-1.56c1.6-2.09,1.91-6.13,0-8.09-5.44-5.74-4.35-14.09-4.35-14.09-3.91-.39-4.69-1.95-4.82-3.65s1.17-1.83,2.61-3.26,1.69-3.13,3.39-3.91,1.95-.27,3-2.48c3-8.09,8.87-11.09,8.87-11.09,1.17,4,.13,9.91-2.35,10.17a2,2,0,0,0-1.83,2.61s.13,1.83.92,1.44C277.08,383.22,283.35,386.74,283.35,386.74Zm-15.59-94.83c2.54-.39,4.5-5.08,11.93-4.11s10.18,7.63,13.11,7.63c26.41,0,6.46,12.92,6.46,12.92,2.35,1.56,9.78,1.17,15.06-.78s6.71,2.93,4.89,4.5-3.91,3.13-3.13,9-2.54,7.23-5.08,7.23-4.31-3.52-6.07-5.87-7.24-4.5-7.24-4.5,4.11,9.59-.39,10.55c-10.53,2-21.72-9.57-21.72-9.57l-6.06.2c-.2,7-2.74,10.17-6.46,9.19s-3.91-15.84-3.91-15.84l-1.37,1.37C244.67,307.76,241,302.28,241,299s3.92-2.35,9.4-4.5S265.21,292.3,267.76,291.91Zm51.33-235.1c2.34-.72,5.16-1.27,6.78-.46s1.9,3.81,1.71,6.24Q323.41,59.61,319.09,56.81Z"/><path class="cls-1" d="M75.82,348.91c-1.82,1.18-1.43,5.48-1.43,5.48l0,.81c2.21.26,4.4.49,6.53.66l-.77-7.34A5.78,5.78,0,0,0,75.82,348.91Z"/><path class="cls-1" d="M249.56,299.05a2.06,2.06,0,1,0,2.06-2.05A2.06,2.06,0,0,0,249.56,299.05Z"/><path class="cls-1" d="M157.52,375.73c-.11-.47-.21-.76-.21-.76A2.18,2.18,0,0,0,157.52,375.73Z"/><path class="cls-1" d="M80.9,355.86h0Z"/><path class="cls-1" d="M82.85,356Z"/><path d="M432.31,233.41A34.19,34.19,0,0,1,426,244.08a29.53,29.53,0,0,1-9.44,7.19A26.08,26.08,0,0,1,405,253.89H395v52.5H384.14V169.76H405a26.21,26.21,0,0,1,11.53,2.62,29.71,29.71,0,0,1,9.44,7.2,33.93,33.93,0,0,1,6.33,10.71,37,37,0,0,1,2.31,13.11v16.95A36.58,36.58,0,0,1,432.31,233.41Zm-8.51-30a23.62,23.62,0,0,0-1.51-8.53,22.7,22.7,0,0,0-4.15-7A19.78,19.78,0,0,0,412,183.2a16.66,16.66,0,0,0-7.51-1.72H395v60.69h9.54a16.79,16.79,0,0,0,7.51-1.71,20.11,20.11,0,0,0,6.13-4.67,22.1,22.1,0,0,0,4.15-6.91,23.62,23.62,0,0,0,1.51-8.53Z"/><path d="M507,306.39V244H473.45v62.41H462.62V169.76h10.83v62.5H507v-62.5h10.82V306.39Z"/><path d="M592.34,274.57H554.25l-7.89,31.82H535.12l35.24-136.63h5.7l35.41,136.63H600.31Zm-35.15-11.72h32.3l-15.86-63-.34-5.05-.33,5.05Z"/><path d="M657.72,241v65.36H646.9V241.22l-31.12-71.46h11.66l24.75,56.79,24.75-56.79H688.6Z"/><path d="M747.78,274.57H709.69l-7.89,31.82H690.56L725.8,169.76h5.7l35.41,136.63H755.75Zm-35.16-11.72h32.3l-15.85-63-.34-5.05-.33,5.05Z"/><path d="M785.4,306.39V169.76h10.82V306.39Zm42.78,0-29.36-68.31,29.36-68.32h13.43l-30.29,68.32,30.29,68.31Z"/><path class="cls-1" d="M394.33,352.84H385L383,359.73h-2.76l8.67-29.61h1.4L399,359.73h-2.75Zm-8.65-2.54h7.95l-3.91-13.65-.08-1.1-.08,1.1Z"/><path class="cls-1" d="M435,359.73l-12.35-21.56-.25-1.28v22.84h-2.66V330.12h1.38l12.35,21.58.27,1.26V330.12h2.66v29.61Z"/><path class="cls-1" d="M460.1,359.73V330.12h2.67v29.61Z"/><path class="cls-1" d="M504.69,359.73v-20.3l-.19,1.26-6.87,19h-1.41l-6.94-19-.16-1.26v20.3h-2.67V330.12h1.39l9,24.28.08,1.1.09-1.1,9-24.28h1.4v29.61Z"/><path class="cls-1" d="M542.13,352.84h-9.38l-1.94,6.89h-2.76l8.67-29.61h1.4l8.72,29.61h-2.75Zm-8.65-2.54h7.95l-3.91-13.65-.08-1.1-.08,1.1Z"/><path class="cls-1" d="M567.12,359.73V330.12h2.66v27.07h11.34v2.54Z"/><path class="cls-1" d="M644.57,355.71a7.33,7.33,0,0,1-3.87,3.87,7.08,7.08,0,0,1-2.83.57h-2.11a7.17,7.17,0,0,1-2.84-.57,7.3,7.3,0,0,1-3.88-3.87,7.12,7.12,0,0,1-.57-2.83V337a7,7,0,0,1,.57-2.83,7.36,7.36,0,0,1,1.56-2.31,7.08,7.08,0,0,1,2.32-1.56,7.17,7.17,0,0,1,2.84-.57h2.11a7.23,7.23,0,0,1,5.14,2.13,7.36,7.36,0,0,1,1.56,2.31,7,7,0,0,1,.57,2.83v1.19l-2.67.42V337a4.56,4.56,0,0,0-.37-1.85,4.72,4.72,0,0,0-2.51-2.51,4.53,4.53,0,0,0-1.85-.37h-1.85a4.56,4.56,0,0,0-1.85.37,5,5,0,0,0-1.51,1,4.86,4.86,0,0,0-1,1.5,4.56,4.56,0,0,0-.37,1.85v15.9a4.52,4.52,0,0,0,.37,1.84,4.79,4.79,0,0,0,1,1.51,4.69,4.69,0,0,0,1.51,1,4.57,4.57,0,0,0,1.85.38h1.85a4.72,4.72,0,0,0,3.35-1.4,4.76,4.76,0,0,0,1-1.51,4.52,4.52,0,0,0,.37-1.84v-1.61l2.67.43v1.18A7.12,7.12,0,0,1,644.57,355.71Z"/><path class="cls-1" d="M668,359.73V330.12h16.66v2.54h-14v11H682v2.54H670.64v11h14v2.54Z"/><path class="cls-1" d="M721.9,359.73l-12.35-21.56-.25-1.28v22.84h-2.66V330.12H708l12.35,21.58.27,1.26V330.12h2.66v29.61Z"/><path class="cls-1" d="M754.18,332.66v27.07h-2.67V332.66h-7.06v-2.54h16.79v2.54Z"/><path class="cls-1" d="M782.39,359.73V330.12h16.66v2.54h-14v11h11.34v2.54H785.05v11h14v2.54Z"/><path class="cls-1" d="M835,359.73l-8-12.64h-3.66v12.64h-2.66V330.12H830a7.12,7.12,0,0,1,2.83.57,7.3,7.3,0,0,1,3.87,3.88,7.16,7.16,0,0,1,.56,2.84v2.4a7.16,7.16,0,0,1-.56,2.84,7.3,7.3,0,0,1-3.87,3.88,7.11,7.11,0,0,1-2.83.56l8,12.64Zm-.35-22.32a4.56,4.56,0,0,0-.37-1.85,5,5,0,0,0-1-1.5,4.72,4.72,0,0,0-1.5-1,4.56,4.56,0,0,0-1.85-.37h-6.61v11.9h6.61a4.57,4.57,0,0,0,1.85-.38,4.69,4.69,0,0,0,1.5-1,4.94,4.94,0,0,0,1-1.51,4.52,4.52,0,0,0,.37-1.84Z"/></svg>