<svg id="Layer_1" data-name="Layer 1" xmlns="http://www.w3.org/2000/svg" viewBox="0 0 329.87 437.87"><path d="M289.3,55.17H220a.53.53,0,0,0,0-.13,55,55,0,0,0-110.09,0v.13H40.57A40.57,40.57,0,0,0,0,95.74V397.3a40.57,40.57,0,0,0,40.57,40.57H289.3a40.57,40.57,0,0,0,40.57-40.57V95.74A40.57,40.57,0,0,0,289.3,55.17ZM164.93,35a20.06,20.06,0,0,1,20,20c0,.05,0,.09,0,.13a20,20,0,0,1-40.07,0s0-.08,0-.13A20.06,20.06,0,0,1,164.93,35ZM289.87,397.3a.56.56,0,0,1-.57.57H40.57a.56.56,0,0,1-.57-.57V95.74a.57.57,0,0,1,.57-.57H80.8v28.68A15.46,15.46,0,0,0,96.26,139.3H233.61a15.46,15.46,0,0,0,15.46-15.45V95.17H289.3a.57.57,0,0,1,.57.57Z"/><path d="M236.54,245.93h-43v-43A11.93,11.93,0,0,0,181.56,191H148.3a11.93,11.93,0,0,0-11.93,11.93v43h-43a11.94,11.94,0,0,0-11.94,11.94v33.26a11.94,11.94,0,0,0,11.94,11.94h43v43A11.93,11.93,0,0,0,148.3,358h33.26a11.93,11.93,0,0,0,11.94-11.93v-43h43a12,12,0,0,0,11.94-11.94V257.87A12,12,0,0,0,236.54,245.93Z"/></svg>