<svg xmlns="http://www.w3.org/2000/svg" width="20.037" height="23.404" viewBox="0 0 20.037 23.404">
  <path id="paypal-brands" d="M5.666,42.671c-.176.963-.873,5.452-1.078,6.721-.015.09-.05.125-.15.125H.7a.609.609,0,0,1-.607-.7L3.028,30.167a1.019,1.019,0,0,1,1-.848c7.639,0,8.281-.186,10.232.572,3.014,1.169,3.29,3.987,2.207,7.037-1.078,3.14-3.636,4.489-7.027,4.529-2.177.035-3.486-.351-3.777,1.214Zm12.323-7.217c-.09-.065-.125-.09-.15.065A11.739,11.739,0,0,1,17.4,37.2c-2,5.708-7.548,5.211-10.257,5.211a.5.5,0,0,0-.547.471C5.46,49.929,5.234,51.4,5.234,51.4a.534.534,0,0,0,.532.647H8.951a.9.9,0,0,0,.873-.747c.035-.271-.055.306.722-4.579.231-1.1.717-.988,1.47-.988,3.561,0,6.34-1.444,7.167-5.632.326-1.745.231-3.581-1.194-4.644Z" transform="matrix(0.999, 0.035, -0.035, 0.999, 1.734, -29.285)" fill="#fff"/>
</svg>
