<svg id="Layer_1" data-name="Layer 1" xmlns="http://www.w3.org/2000/svg" viewBox="0 0 518.09 364.53"><path d="M490.7,113.71H459.58A124.07,124.07,0,0,0,412.2,54.24V0h-7.36a138.74,138.74,0,0,0-90.75,33.62H185.22A123.59,123.59,0,0,0,62.35,143.36H62a22,22,0,0,1-.39-43.9v-40a61.95,61.95,0,0,0,0,123.89v.79A123.52,123.52,0,0,0,116,286.59v50.55a27.39,27.39,0,0,0,27.39,27.39h70a27.39,27.39,0,0,0,27.39-27.39V307.8H294v29.34a27.39,27.39,0,0,0,27.39,27.39h70.05a27.39,27.39,0,0,0,27.39-27.39V282.45A124.28,124.28,0,0,0,446.54,253H490.7a27.39,27.39,0,0,0,27.39-27.39V141.1A27.39,27.39,0,0,0,490.7,113.71ZM478.09,213H422.34a83.3,83.3,0,0,1-10.14,19.23c-1.64,2.33-3.4,4.57-5.26,6.72a84.35,84.35,0,0,1-15.71,14,82.8,82.8,0,0,1-12.4,7.08v64.44H334V267.8H200.78v56.73H156v-62A84.07,84.07,0,0,1,116,231a83.18,83.18,0,0,1-14.39-46.86V157.27a83.81,83.81,0,0,1,83.65-83.65H330.44A99.68,99.68,0,0,1,372.2,45.51V78.59a84,84,0,0,1,40,30.59c1.05,1.48,2.06,3,3,4.53a83.16,83.16,0,0,1,12.18,40h50.7Z"/><path d="M377,142.93a15.39,15.39,0,1,0,15.39,15.39A15.4,15.4,0,0,0,377,142.93Z"/></svg>