<svg id="Layer_1" data-name="Layer 1" xmlns="http://www.w3.org/2000/svg" viewBox="0 0 491.48 356.09"><path d="M478.17,110.74h-24A136.63,136.63,0,0,0,409.7,55.48V0H395.22a108,108,0,0,0-74.16,29.35H188.61A136.23,136.23,0,0,0,55.84,135.13h-8.1a17.74,17.74,0,0,1,0-35.48h4.69v-30H47.74a47.74,47.74,0,0,0,0,95.48h4.7c0,.13,0,.26,0,.39h0a136,136,0,0,0,59.09,112.26v65a13.31,13.31,0,0,0,13.31,13.31h96.26a13.31,13.31,0,0,0,13.3-13.31V301.7h52.44v41.08a13.3,13.3,0,0,0,13.3,13.31h96.26a13.31,13.31,0,0,0,13.31-13.31V275.56a136.81,136.81,0,0,0,29-28.65h39.51a13.3,13.3,0,0,0,13.31-13.3V124A13.31,13.31,0,0,0,478.17,110.74Zm-16.69,88.35v17.82H422.36a107,107,0,0,1-42.66,42.14v67H316.83V271.7H204.39v54.39H141.52V260.66a106.45,106.45,0,0,1-59.09-95.14c0-.13,0-.26,0-.39A106.19,106.19,0,0,1,188.61,59.35H329.48c1.53,0,3,0,4.56.1a78.72,78.72,0,0,1,34-24.56,77.62,77.62,0,0,1,11.69-3.35V72a106.86,106.86,0,0,1,40.7,38.74,105.66,105.66,0,0,1,12.32,30h28.76Z"/><circle cx="368.8" cy="152.22" r="13.89"/></svg>