<svg id="Layer_1" data-name="Layer 1" xmlns="http://www.w3.org/2000/svg" viewBox="0 0 491.48 382.7"><path d="M95.67,0h0A95.67,95.67,0,0,0,0,95.67V287A95.67,95.67,0,0,0,95.67,382.7h0A95.68,95.68,0,0,0,191.35,287V95.67A95.67,95.67,0,0,0,95.67,0Zm55.68,191.35H40V95.67a55.68,55.68,0,0,1,111.35,0Z"/><path d="M354.91,108.82A136.57,136.57,0,1,0,491.48,245.38,136.56,136.56,0,0,0,354.91,108.82Zm0,233.13A96.52,96.52,0,0,1,274,192.75L407.55,326.3A96,96,0,0,1,354.91,342ZM435.83,298,302.28,164.46A96.52,96.52,0,0,1,435.83,298Z"/></svg>