<svg id="Layer_1" data-name="Layer 1" xmlns="http://www.w3.org/2000/svg" viewBox="0 0 477.92 426.1"><path d="M303.57,259.47l17.8-.51L456.71,123.62A72.41,72.41,0,0,0,354.3,21.21l-195,195c-11.72,11.72-9.83,29,.11,38.92.36.36.73.7,1.1,1L0,416.68l37.15,7.05c46.35,8.81,107.14-7.26,162.6-43C251.36,347.51,289.71,302.29,303.57,259.47Zm79-210a32.41,32.41,0,0,1,45.84,45.84l-124,124-28.32.88L210,222.12ZM178.09,347.12c-29.26,18.85-60.44,31.49-88.5,36.54L211,262.27l49.16-1.52C245.85,290.81,215.94,322.74,178.09,347.12Z"/></svg>