<svg id="Layer_1" data-name="Layer 1" xmlns="http://www.w3.org/2000/svg" viewBox="0 0 545.22 437.67"><rect x="26.93" y="138" width="218.09" height="29.74" rx="6.78"/><rect y="192.78" width="218.09" height="29.74" rx="6.78"/><path d="M538.43,316.09H518.82V208.22A43.24,43.24,0,0,0,506,177.48L424.68,97a43.25,43.25,0,0,0-30.42-12.51H354.52V54.78A54.79,54.79,0,0,0,299.74,0H109.17A54.79,54.79,0,0,0,54.39,54.78V83.22H6.78A6.78,6.78,0,0,0,0,90v16.17A6.79,6.79,0,0,0,6.78,113H211.3a6.79,6.79,0,0,0,6.79-6.79V90a6.78,6.78,0,0,0-6.79-6.78H94.39V54.78A14.78,14.78,0,0,1,109.17,40H299.74a14.78,14.78,0,0,1,14.78,14.78V316.09H207.08A81.57,81.57,0,0,0,94.39,285.9V255.72a7.63,7.63,0,0,0-7.63-7.63H62a7.63,7.63,0,0,0-7.63,7.63v99.34c0,45,36,82.28,81,82.61a81.58,81.58,0,0,0,82.2-81.58H328.33a81.59,81.59,0,0,0,163.17,0h46.93a6.79,6.79,0,0,0,6.79-6.79V322.87A6.78,6.78,0,0,0,538.43,316.09ZM132.89,397.56a41.58,41.58,0,0,1-8.26-81.47h22.7a41.58,41.58,0,0,1-14.44,81.47Zm261.37-273a3.26,3.26,0,0,1,2.29.94l68,67.32H354.52V124.52Zm12.57,273a41.58,41.58,0,0,1-8.27-81.47h22.7a41.58,41.58,0,0,1-14.43,81.47Zm3.08-123.06a81.31,81.31,0,0,0-55.39,21.7V234h124.3v78.42A81.52,81.52,0,0,0,409.91,274.5Z"/></svg>