<svg id="Layer_1" data-name="Layer 1" xmlns="http://www.w3.org/2000/svg" viewBox="0 0 436.04 435.85"><path d="M413.72,162.26l-6.89-6.89-40-40-9-9,29.5-29.51,17.49,17.5a9.84,9.84,0,0,0,13.91,0l14.37-14.37a9.83,9.83,0,0,0,0-13.9l-17.5-17.5L387.39,20.38l-17.5-17.5a9.83,9.83,0,0,0-13.9,0L341.62,17.25a9.83,9.83,0,0,0,0,13.9l17.49,17.5-29.5,29.5-9-9-40-40-6.88-6.88a11.21,11.21,0,0,0-15.84,0L245.51,34.75a11.2,11.2,0,0,0,0,15.85l6.88,6.88L65.59,244.27A66,66,0,0,0,46.3,288.82l5.59,75.95-50,50a6.46,6.46,0,0,0,0,9.13l10,10.06a6.47,6.47,0,0,0,9.14,0l49.83-49.84,76.3,5.62a66,66,0,0,0,44.55-19.3l186.8-186.79,6.88,6.88a11.2,11.2,0,0,0,15.85,0l12.43-12.43A11.21,11.21,0,0,0,413.72,162.26ZM163.48,342.16a25.84,25.84,0,0,1-15.91,7.49l-57-4.19-4.2-57a25.9,25.9,0,0,1,7.5-15.91l12.45-12.46L133,286.79a11.19,11.19,0,0,0,15.84,0l12.43-12.43a11.19,11.19,0,0,0,0-15.84l-26.69-26.7,29.69-29.69L191,228.82a11.19,11.19,0,0,0,15.84,0l12.43-12.43a11.19,11.19,0,0,0,0-15.84l-26.69-26.69,29.69-29.7L249,170.86a11.22,11.22,0,0,0,15.85,0l12.43-12.43a11.22,11.22,0,0,0,0-15.85l-26.7-26.69,30.12-30.12,69.61,69.6Z"/></svg>