<svg xmlns="http://www.w3.org/2000/svg" width="14.872" height="14.872" viewBox="0 0 14.872 14.872">
  <path id="temperature-low-solid" d="M12.083,0a2.788,2.788,0,1,0,2.788,2.788A2.793,2.793,0,0,0,12.083,0Zm0,3.718a.929.929,0,1,1,.929-.929A.928.928,0,0,1,12.083,3.718ZM7.436,3.253a3.253,3.253,0,1,0-6.506,0V8.09a4.175,4.175,0,1,0,7.436,2.6,4.145,4.145,0,0,0-.929-2.6Zm-3.253,9.76A2.32,2.32,0,0,1,2.788,8.836V3.253a1.394,1.394,0,0,1,2.788,0V8.836a2.32,2.32,0,0,1-1.394,4.177Zm.465-3.634V8.83a.465.465,0,0,0-.929,0v.549a1.394,1.394,0,1,0,.929,0Z" fill="#fff"/>
</svg>
