<svg id="Layer_1" data-name="Layer 1" xmlns="http://www.w3.org/2000/svg" viewBox="0 0 381.39 434.61"><path d="M372,68.35H297.78l-31.1-55.63A24.86,24.86,0,0,0,245,0H136.4a24.86,24.86,0,0,0-21.69,12.72L83.61,68.35H9.39A9.38,9.38,0,0,0,0,77.74v22.43a9.39,9.39,0,0,0,9.39,9.4H26.73L46.16,402.91A34,34,0,0,0,80,434.61H301.36a33.94,33.94,0,0,0,33.87-31.7l19.43-293.34H372a9.39,9.39,0,0,0,9.39-9.4V77.74A9.38,9.38,0,0,0,372,68.35ZM145.29,40H236.1L252,68.35H129.44Zm150.4,354.61H85.7l-16-241.48-2.88-43.56H314.57l-2.88,43.56Z"/></svg>