<svg xmlns="http://www.w3.org/2000/svg" width="24.43" height="22.801" viewBox="0 0 24.43 22.801">
  <path id="university-solid_1_" data-name="university-solid (1)" d="M40.43,36.886V37.7a.407.407,0,0,1-.407.407H38.8v.611a.611.611,0,0,1-.611.611H18.239a.611.611,0,0,1-.611-.611v-.611H16.407A.407.407,0,0,1,16,37.7v-.814a.407.407,0,0,1,.251-.376l11.808-4.479a.407.407,0,0,1,.311,0l11.808,4.479A.407.407,0,0,1,40.43,36.886ZM39.208,52.358H17.221A1.221,1.221,0,0,0,16,53.579v.814a.407.407,0,0,0,.407.407H40.023a.407.407,0,0,0,.407-.407v-.814A1.221,1.221,0,0,0,39.208,52.358ZM20.072,40.143v9.772H18.239a.611.611,0,0,0-.611.611v1.018H38.8V50.526a.611.611,0,0,0-.611-.611H36.358V40.143H33.1v9.772H29.843V40.143H26.586v9.772H23.329V40.143Z" transform="translate(-16 -32)" fill="#fff"/>
</svg>
