<svg xmlns="http://www.w3.org/2000/svg" viewBox="0 0 220.36 272.8"><defs><style>.cls-1{fill:#181818;}</style></defs><g id="Object"><path class="cls-1" d="M220.33,46.37,209.12,12.74a.49.49,0,0,0-.21-.26L188.5.07a.48.48,0,0,0-.26-.07H146.61a.51.51,0,0,0-.3.1l-15.21,12a.5.5,0,0,0-.16.22l-5.19,14.23-16.42,45L99.77,89.88,80.2,110.24a.57.57,0,0,0-.08.13L53.69,164.81v0L39.29,201.61.1,251.2a.49.49,0,0,0,0,.51.47.47,0,0,0,.43.27h16L7.27,268.07a.49.49,0,0,0,0,.54.47.47,0,0,0,.38.19l.12,0L73.47,252a.75.75,0,0,0,.13-.06L97.89,237l8.62,28.23a.5.5,0,0,0,.41.34.49.49,0,0,0,.47-.23l19.8-33.27L138,236.73a.49.49,0,0,0,.44,0l8.76-5.14,2.49,25.27-16.53,8.65-.08,0-8,6.41a.48.48,0,0,0,.3.86h.09l16.82-3.2.11,0L154.23,264l16.63,6.34.12,0L185.39,272a.49.49,0,0,0,.36-.86l-13.61-11.21,0,0-11.77-7.84,2.73-29.81,12.22-7.17a.48.48,0,0,0,.2-.24L185.89,188h0l8.78-22.67,12.75-14.35a.56.56,0,0,0,.11-.2l8.81-36a.92.92,0,0,0,0-.16l-4-43.14,8-24.73A.51.51,0,0,0,220.33,46.37ZM131.8,12.79,146.78,1h41.33l19.48,11.84L161.47,31.57,131.79,12.82Zm20.79,62L146.8,23.45l14.36,9.07a.5.5,0,0,0,.26.08.58.58,0,0,0,.18,0l20.18-8.21-9.05,48-.25.14Zm19.84-1.31L160.3,97l-7.58-21.22ZM182.78,24.3l21.36,11.29-2.5,20.58L173.83,71.72ZM131.45,13.76l13.49,8.52-18,3.79Zm-4.76,13.36,19.1-4,5.77,51.14L126.69,42.48Zm24.74,48.53a.55.55,0,0,0,.31.18.31.31,0,0,0,0,.08l8,22.42a.5.5,0,0,0,.43.32h0a.48.48,0,0,0,.43-.26l12.81-24.82a.69.69,0,0,0,0-.13l.09-.48,32.33-18.09L188.29,87l-29.17,16.56L129,70.32l-5.95-30.85ZM125.72,29.47V41.24l-2.93-3.74ZM122.1,39.4l6,31.24a.45.45,0,0,0,.11.23l25.71,28.41-5.58-1.55-25.8-20.3-8.86-15ZM100.52,90.5a.5.5,0,0,0,.08-.12L110.21,72s0,0,0-.06l3-8.32L121.77,78a.49.49,0,0,0,.12.13l24,18.92-30.83-8.56a.57.57,0,0,0-.26,0L98,93.1ZM81,110.86,96.7,94.47l18.28-5,40.17,11.16,3.51,3.88a.5.5,0,0,0,.36.16.44.44,0,0,0,.24-.07l4.12-2.33h6.31l-36.47,29.46-63.44,2.17Zm53.64,21,36.64-29.61h9.83l3.87,14.68-10.12,20Zm39.76,6-3.69,7.3-79.12,73-52,7.77,94.06-93.27ZM40.1,202.16a.54.54,0,0,0,.07-.13l14.4-36.81L69.3,134.87l62.88-2.15L38.52,225.6,37,206.14ZM1.48,251l34.59-43.75,1.55,19.26L17.07,251Zm16.22.77,20.67-24.65,51-7.61L9,267Zm80.19-15.89L73.16,251.05,10.87,267,92,219.09h0l.08-.05,77.33-71.38-25.2,49.89Zm28.69-4.66-19.46,32.69-8.4-27.47,27.05-22.38.86,17.1Zm32.76,21a.47.47,0,0,0,.21.45l12,8,12.34,10.16-12.74-1.41-16.75-6.38a.46.46,0,0,0-.38,0l-12,5.58-14.83,2.82,6.44-5.15,16.78-8.79a.48.48,0,0,0,.25-.47l-2.56-26L162,222.86Zm15.3-37.92-36.47,21.41-10.57-4.53-.9-17.91,18.13-15,39.82-9.83Zm-29.13-17.2L174.89,139l10,48.47Zm69.87-82.58-8.76,35.83L193.89,164.7a.6.6,0,0,0-.09.15l-8.22,21.22-10-48.51,10.24-20.28,16.75-15.15a.6.6,0,0,0,.14-.21l8.88-28.14Zm-4-43.35h0l-9.57,30.3-16.12,14.59-3.8-14.44a.48.48,0,0,0-.47-.36H165.08l23.8-13.51a.44.44,0,0,0,.19-.19L207.53,54,219,47.55Zm-8.71-15.62,2.45-20.21a.48.48,0,0,0-.26-.48L183.57,23.63l24.8-10.09L219.28,46.3Z"/></g></svg>